<svg xmlns="http://www.w3.org/2000/svg" version="1.1" xmlns:xlink="http://www.w3.org/1999/xlink" xmlns:svgjs="http://svgjs.dev/svgjs" width="308.7612359841165" height="304.915625" viewBox="0 0 2000 2250"><g transform="matrix(1,0,0,1,0,0)"><svg viewBox="0 0 320 360" data-background-color="#ffffff" preserveAspectRatio="xMidYMid meet" height="2250" width="2000" xmlns="http://www.w3.org/2000/svg" xmlns:xlink="http://www.w3.org/1999/xlink"><g id="tight-bounds" transform="matrix(1,0,0,1,0,0)"><svg viewBox="0 0 320 360" height="360" width="320"><g><svg></svg></g><g><svg viewBox="0 0 320 360" height="360" width="320"><g><path xmlns="http://www.w3.org/2000/svg" d="M297.491 100.645c-12.426-21.51-112.674-79.355-137.491-79.355-24.817 0-125.028 57.845-137.491 79.355-11.591 20.02-11.591 138.726 0 158.746 12.463 21.474 112.674 79.319 137.491 79.319 24.817 0 125.064-57.845 137.491-79.355 11.591-20.02 11.591-138.69 0-158.71zM309.481 93.705c-14.461-24.998-119.469-86.295-149.481-86.295-30.012 0-135.02 61.297-149.481 86.295-14.025 24.199-14.025 148.391 0 172.59 14.461 24.998 119.469 86.295 149.481 86.295 30.012 0 135.02-61.297 149.481-86.259 14.025-24.235 14.025-148.427 0-172.626zM300.906 261.353c-12.753 22.055-115.472 81.317-140.906 81.318-25.434 0-128.153-59.298-140.906-81.354-11.881-20.529-11.881-142.178 0-162.707 12.753-22.019 115.472-81.281 140.906-81.281 25.434 0 128.153 59.298 140.906 81.318 11.881 20.529 11.881 142.178 0 162.706z" fill="#010c80" fill-rule="nonzero" stroke="none" stroke-width="1" stroke-linecap="butt" stroke-linejoin="miter" stroke-miterlimit="10" stroke-dasharray="" stroke-dashoffset="0" font-family="none" font-weight="none" font-size="none" text-anchor="none" style="mix-blend-mode: normal" data-fill-palette-color="tertiary"></path></g><g transform="matrix(1,0,0,1,48,98.51490878814491)"><svg viewBox="0 0 224 162.97018242371018" height="162.97018242371018" width="224"><g><svg viewBox="0 0 224 162.97018242371018" height="162.97018242371018" width="224"><g><svg viewBox="0 0 224 162.97018242371018" height="162.97018242371018" width="224"><g><svg viewBox="0 0 224 162.97018242371018" height="162.97018242371018" width="224"><g><svg viewBox="0 0 224 162.97018242371018" height="162.97018242371018" width="224"><g><svg viewBox="0 0 224 108.87925696594426" height="108.87925696594426" width="224"><g transform="matrix(1,0,0,1,0,0)"><svg width="224" viewBox="7.099999904632568 -36.900001525878906 113.04000091552734 54.95000076293945" height="108.87925696594426" data-palette-color="#ffffff"><path d="M7.1-9.8L7.1-9.8Q7.1-13.3 7.93-16.68 8.75-20.05 10.25-23.08 11.75-26.1 13.83-28.63 15.9-31.15 18.38-33 20.85-34.85 23.65-35.88 26.45-36.9 29.4-36.9L29.4-36.9Q32.85-36.9 34.77-35.45 36.7-34 36.7-31.4L36.7-31.4Q36.7-30.4 36.43-29.35 36.15-28.3 35.63-27.28 35.1-26.25 34.4-25.3 33.7-24.35 32.85-23.65L32.85-23.65Q31.55-23.85 30.6-24.83 29.65-25.8 29.4-27.1L29.4-27.1Q31.15-28.55 32.18-30.13 33.2-31.7 33.2-33L33.2-33Q33.2-35.2 30.45-35.2L30.45-35.2Q29.3-35.2 28.08-34.73 26.85-34.25 25.6-33.4 24.35-32.55 23.18-31.35 22-30.15 21-28.7L21-28.7Q14.05-18.7 14.05-8.25L14.05-8.25Q14.05-4.55 15.2-2.3 16.35-0.05 18.25 0.35L18.25 0.35Q20.4-0.15 23.7-2.4 27-4.65 30.9-8.25L30.9-8.25Q31.4-7.75 31.5-7.2L31.5-7.2Q30.05-5.3 28.5-3.55 26.95-1.8 25.43-0.35 23.9 1.1 22.43 2.2 20.95 3.3 19.7 3.9L19.7 3.9Q13.5 3.8 10.3 0.35 7.1-3.1 7.1-9.8ZM52.3-20.2L52.3-20.2Q52.8-20.2 53.47-20.03 54.15-19.85 54.7-19.58 55.25-19.3 55.62-19 56-18.7 56-18.45L56-18.45Q55-16.35 54.15-14.23 53.3-12.1 52.7-10.15 52.1-8.2 51.77-6.5 51.45-4.8 51.45-3.55L51.45-3.55Q51.45-2.15 51.75-1.23 52.05-0.3 52.75 0.1L52.75 0.1Q52.15 0.5 51.2 0.75 50.25 1 49.5 1L49.5 1Q46.8 1 46.8-2.7L46.8-2.7Q46.8-5.55 48.7-10.5L48.7-10.5Q47.7-8.2 46.4-6.18 45.1-4.15 43.75-2.6 42.4-1.05 41.02-0.08 39.65 0.9 38.5 1.1L38.5 1.1Q36.65 1 35.5-0.68 34.35-2.35 34.35-4.95L34.35-4.95Q34.35-7.75 35.55-10.85 36.75-13.95 38.62-16.6 40.5-19.25 42.7-21.03 44.9-22.8 46.95-22.9L46.95-22.9Q47.45-22.75 48.07-22.3 48.7-21.85 49.27-21.25 49.85-20.65 50.25-20.03 50.65-19.4 50.7-18.95L50.7-18.95Q48.7-18.65 46.57-17 44.45-15.35 42.72-13.03 41-10.7 39.9-8.05 38.8-5.4 38.8-3.1L38.8-3.1Q38.8-2.15 39.5-1.9L39.5-1.9Q40.95-2.2 42.85-4.38 44.75-6.55 47.45-11.1L47.45-11.1Q47.95-12 48.57-13.1 49.2-14.2 49.85-15.4 50.5-16.6 51.12-17.82 51.75-19.05 52.3-20.2ZM75.8-19.9L75.8-19.9Q75.75-18.95 75.47-17.93 75.2-16.9 74.8-16.07 74.4-15.25 73.95-14.7 73.5-14.15 73.1-14.15L73.1-14.15Q72.55-14.2 72.45-14.9L72.45-14.9Q72.45-15.05 72.57-15.38 72.7-15.7 72.85-16.1 73-16.5 73.12-16.9 73.25-17.3 73.25-17.6L73.25-17.6Q73.25-18.3 72.92-18.78 72.6-19.25 72.05-19.25L72.05-19.25Q70.05-19.25 69-16.75 67.95-14.25 67.95-9.4L67.95-9.4Q67.95-8.9 68-8.8L68-8.8Q69.05-8.85 69.87-8.88 70.7-8.9 71.5-8.9L71.5-8.9Q71.55-8.8 71.55-8.5L71.55-8.5Q71.55-8.05 71.35-7.85L71.35-7.85Q70.2-7.6 69.52-7.43 68.85-7.25 68.5-7.1 68.15-6.95 68.07-6.78 68-6.6 68-6.3L68-6.3Q68-5.9 68.02-5.5 68.05-5.1 68.05-4.5L68.05-4.5Q68.05-0.3 65.77 2.25 63.5 4.8 59.45 5.2L59.45 5.2Q58.75 5.15 58 4.8 57.25 4.45 56.57 3.9 55.9 3.35 55.4 2.68 54.9 2 54.7 1.3L54.7 1.3Q54.7-0.6 55.5-2.33 56.3-4.05 57.67-5.38 59.05-6.7 60.92-7.53 62.8-8.35 65-8.5L65-8.5Q65-9.75 64.75-10.95 64.5-12.15 64.22-13.28 63.95-14.4 63.7-15.48 63.45-16.55 63.45-17.6L63.45-17.6Q63.45-18.95 64-20.28 64.55-21.6 65.45-22.73 66.35-23.85 67.55-24.65 68.75-25.45 70.05-25.75L70.05-25.75Q70.6-25.6 71.52-24.88 72.45-24.15 73.35-23.25 74.25-22.35 74.95-21.43 75.65-20.5 75.8-19.9ZM59.3 2.9L59.3 2.9Q60.5 2.4 61.57 1.45 62.65 0.5 63.45-0.7 64.25-1.9 64.72-3.25 65.2-4.6 65.2-5.9L65.2-5.9Q64.2-5.75 63-4.98 61.8-4.2 60.75-3.13 59.7-2.05 59-0.9 58.3 0.25 58.3 1.1L58.3 1.1Q58.3 2.2 59.3 2.9ZM93.74-20.7L93.74-20.7Q93.54-17.6 92.64-15.38 91.74-13.15 90.07-11.48 88.39-9.8 85.99-8.45 83.59-7.1 80.39-5.85L80.39-5.85Q80.39-5.55 80.37-5.23 80.34-4.9 80.34-4.55L80.34-4.55Q80.34-3.9 80.44-3.2 80.54-2.5 80.79-1.9 81.04-1.3 81.49-0.93 81.94-0.55 82.64-0.55L82.64-0.55Q83.99-0.55 85.29-1.15 86.59-1.75 87.77-2.63 88.94-3.5 89.97-4.53 90.99-5.55 91.79-6.4L91.79-6.4Q92.29-5.95 92.64-5.55L92.64-5.55Q90.39-2.55 87.72-0.58 85.04 1.4 82.64 1.95L82.64 1.95Q79.19 1.55 77.27-0.58 75.34-2.7 75.34-5.7L75.34-5.7Q75.34-7.75 75.92-9.88 76.49-12 77.52-13.98 78.54-15.95 79.92-17.7 81.29-19.45 82.87-20.75 84.44-22.05 86.12-22.8 87.79-23.55 89.44-23.55L89.44-23.55Q91.74-23.25 93.74-20.7ZM90.29-19.05L90.29-19.05Q88.94-18.85 87.49-17.95 86.04-17.05 84.77-15.55 83.49-14.05 82.44-12.05 81.39-10.05 80.79-7.75L80.79-7.75Q84.79-9.75 87.44-12.68 90.09-15.6 90.29-19.05ZM114.84-7.75L114.84-7.75Q113.69-4.1 112.54-1.1 111.39 1.9 110.09 4.42 108.79 6.95 107.29 9.08 105.79 11.2 103.99 13.1L103.99 13.1Q101.69 15.5 99.24 16.78 96.79 18.05 94.34 18.05L94.34 18.05Q93.09 18.05 91.87 17.78 90.64 17.5 89.57 17.03 88.49 16.55 87.67 15.93 86.84 15.3 86.49 14.6L86.49 14.6Q86.49 14 87.19 13.55L87.19 13.55Q87.79 14.1 88.19 14.4 88.59 14.7 88.97 14.9 89.34 15.1 89.77 15.15 90.19 15.2 90.74 15.2L90.74 15.2Q93.59 15.2 96.32 13.53 99.04 11.85 101.47 8.78 103.89 5.7 105.89 1.33 107.89-3.05 109.29-8.45L109.29-8.45Q108.64-7.45 107.69-6 106.74-4.55 105.59-3.13 104.44-1.7 103.22-0.55 101.99 0.6 100.84 1L100.84 1Q100.04 0.95 99.17 0.68 98.29 0.4 97.52-0.1 96.74-0.6 96.14-1.3 95.54-2 95.34-2.9L95.34-2.9Q95.34-4.35 95.44-5.23 95.54-6.1 95.79-7.15L95.79-7.15Q96.24-9.05 97.12-11.45 97.99-13.85 99.17-16.18 100.34-18.5 101.77-20.53 103.19-22.55 104.74-23.7L104.74-23.7Q105.14-23.7 105.74-23.63 106.34-23.55 106.99-23.35 107.64-23.15 108.24-22.88 108.84-22.6 109.29-22.15L109.29-22.15Q108.74-21.65 106.89-18.8 105.04-15.95 102.79-10.6L102.79-10.6Q102.54-10.05 102.19-9 101.84-7.95 101.52-6.8 101.19-5.65 100.94-4.55 100.69-3.45 100.69-2.8L100.69-2.8Q100.69-2.4 100.82-2.2 100.94-2 101.04-1.9L101.04-1.9Q101.94-2.05 103.44-3.38 104.94-4.7 106.84-7.5L106.84-7.5Q108.04-9.3 109.04-11.08 110.04-12.85 111.02-14.65 111.99-16.45 113.04-18.35 114.09-20.25 115.29-22.25L115.29-22.25Q115.94-22.25 116.69-22.1 117.44-21.95 118.14-21.73 118.84-21.5 119.37-21.23 119.89-20.95 120.14-20.65L120.14-20.65Q118.59-17.35 117.24-14.2 115.89-11.05 114.84-7.75Z" opacity="1" transform="matrix(1,0,0,1,0,0)" fill="#ffffff" class="undefined-text-0" data-fill-palette-color="quaternary" id="text-0"></path></svg></g></svg></g><g transform="matrix(1,0,0,1,0,134.58303643343652)"><svg viewBox="0 0 224 28.387145990273673" height="28.387145990273673" width="224"><g transform="matrix(1,0,0,1,0,0)"><svg width="224" viewBox="1.1700000762939453 -31.709999084472656 256 32.439998626708984" height="28.387145990273673" data-palette-color="#ffffff"><path d="M1.17-28.93L5.54-28.1 5.54-2.34 1.42-1.42 1.29 0 14.75 0 15.04-1.66 9.16-2.34 9.18-14.14 16.53-14.14 17.11-9.55 18.8-9.81 19.51-19.34 17.77-19.09 16.77-15.92 9.18-15.92 9.18-28.64 21.31-28.64 22-22.78 23.66-22.53 24.56-30.37 1.37-30.37 1.17-28.93ZM39.45 0L39.65-1.49 34.03-2.15 34.03-11.33Q34.3-13.31 34.93-14.93 35.57-16.55 36.46-17.5 37.35-18.46 38.33-18.46L38.33-18.46Q39.69-18.46 40.94-17.19L40.94-17.19Q41.65-17.68 42.05-18.29 42.45-18.9 42.45-19.51L42.45-19.51Q42.45-20.48 41.72-21.17 40.99-21.85 39.74-21.85L39.74-21.85Q38.57-21.85 37.44-21.02 36.3-20.19 35.39-18.64 34.47-17.09 33.88-15.01L33.88-15.01 33.54-15.01 33.88-21 33.49-21.41 27.17-20.7 26.95-19.43 30.86-18.48 30.86-2.1 27.07-1.27 26.88 0 39.45 0ZM54.44 0.66Q57.1 0.66 59.35-0.78 61.59-2.22 62.91-4.81 64.23-7.4 64.23-10.72L64.23-10.72Q64.23-13.84 63.11-16.36 61.98-18.87 59.89-20.31 57.81-21.75 55.05-21.75L55.05-21.75Q52.29-21.75 49.95-20.34 47.6-18.92 46.22-16.27 44.84-13.62 44.84-10.03L44.84-10.03Q44.84-6.88 46.03-4.46 47.21-2.03 49.4-0.68 51.58 0.66 54.44 0.66L54.44 0.66ZM54-19.68Q56.17-19.68 57.71-18.15 59.25-16.63 60.02-14.23 60.79-11.84 60.79-9.28L60.79-9.28Q60.79-7.1 60.13-5.29 59.47-3.47 58.22-2.39 56.98-1.32 55.29-1.32L55.29-1.32Q53.05-1.32 51.46-2.77 49.87-4.22 49.08-6.62 48.29-9.01 48.29-11.79L48.29-11.79Q48.29-13.96 48.96-15.77 49.63-17.58 50.92-18.63 52.22-19.68 54-19.68L54-19.68ZM76.99 0L77.24-1.42 73.67-2.1 73.67-16.36Q75.14-17.82 76.46-18.44 77.78-19.07 79.48-19.07L79.48-19.07Q81.32-19.07 82.48-17.79 83.64-16.5 83.64-13.87L83.64-13.87 83.64-2.1 80.22-1.27 80.02 0 90.1 0 90.28-1.42 86.83-2.1 86.83-14.65Q86.83-18.16 85.32-19.95 83.81-21.73 81.19-21.73L81.19-21.73Q78.97-21.73 76.9-20.53 74.82-19.34 73.6-17.82L73.6-17.82 73.41-17.82 73.65-21.04 73.36-21.39 66.89-20.65 66.72-19.38 70.5-18.43 70.5-2.1 66.76-1.27 66.57 0 76.99 0ZM95.6-18.82L95.5-6.13Q95.47-2.61 96.66-1.01 97.84 0.59 100.16 0.59L100.16 0.59Q101.97 0.59 103.62-0.35 105.26-1.29 106.39-2.91L106.39-2.91 105.92-3.98Q105.92-3.96 105.28-3.53 104.63-3.1 103.79-2.75 102.94-2.39 102.14-2.39L102.14-2.39Q100.94-2.39 100.21-2.84 99.48-3.3 99.12-4.42 98.77-5.54 98.77-7.57L98.77-7.57 98.84-18.75 105.58-18.75 105.78-20.51 98.87-20.51 98.87-26.07 97.72-26.07Q96.77-23.71 95.51-22.16 94.25-20.61 92.49-19.8L92.49-19.8 92.49-18.82 95.6-18.82ZM117.42 0.73Q119.76 0.73 121.72-0.15 123.67-1.03 124.96-2.54L124.96-2.54 124.5-3.61Q123.13-2.69 121.89-2.29 120.64-1.9 119.1-1.9L119.1-1.9Q116.81-1.9 115.25-3.15 113.68-4.39 112.91-6.42 112.15-8.45 112.1-10.86L112.1-10.86 123.91-11.01Q124.08-11.65 124.21-12.63 124.33-13.62 124.33-14.21L124.33-14.21Q124.33-17.92 122.68-19.78 121.03-21.63 118.22-21.63L118.22-21.63Q115.81-21.63 113.6-20.28 111.39-18.92 110.02-16.33 108.65-13.75 108.65-10.25L108.65-10.25Q108.65-6.69 109.85-4.21 111.05-1.73 113.04-0.5 115.03 0.73 117.42 0.73L117.42 0.73ZM117.03-19.75Q118.81-19.75 119.85-18.43 120.89-17.11 120.89-14.89L120.89-14.89Q120.89-13.43 120.72-12.94L120.72-12.94 112.15-12.38Q112.19-14.77 112.87-16.43 113.54-18.09 114.62-18.92 115.71-19.75 117.03-19.75L117.03-19.75ZM137.66 0L137.9-1.42 134.34-2.1 134.34-16.36Q135.8-17.82 137.12-18.44 138.44-19.07 140.15-19.07L140.15-19.07Q141.98-19.07 143.14-17.79 144.3-16.5 144.3-13.87L144.3-13.87 144.3-2.1 140.88-1.27 140.68 0 150.77 0 150.94-1.42 147.49-2.1 147.49-14.65Q147.49-18.16 145.98-19.95 144.47-21.73 141.86-21.73L141.86-21.73Q139.63-21.73 137.56-20.53 135.48-19.34 134.26-17.82L134.26-17.82 134.07-17.82 134.31-21.04 134.02-21.39 127.55-20.65 127.38-19.38 131.16-18.43 131.16-2.1 127.43-1.27 127.23 0 137.66 0ZM161.21 0.51Q163.56 0.51 165.33-0.54 167.1-1.59 168.27-3.2L168.27-3.2 168.51-3.2 168.51-3.03Q168.51-1.44 169.36-0.45 170.2 0.54 171.88 0.54L171.88 0.54Q172.79 0.54 173.36 0.43 173.93 0.32 174.84 0.05L174.84 0.05 175.06-1.42 173.76-1.71Q172.93-1.88 172.46-2.14 171.98-2.39 171.66-3.16 171.34-3.93 171.34-5.42L171.34-5.42 171.34-31.3 170.98-31.71 164.68-31.18 164.46-29.88 168.17-28.83 168.17-23.73 168.51-20.53 168.32-20.53Q167.71-21 166.36-21.35 165.02-21.7 163.83-21.7L163.83-21.7Q161.21-21.7 158.81-20.17 156.4-18.63 154.91-15.87 153.42-13.11 153.42-9.59L153.42-9.59Q153.42-6.4 154.45-4.11 155.48-1.83 157.23-0.66 158.99 0.51 161.21 0.51L161.21 0.51ZM162.63-19.78Q164.17-19.78 165.72-18.97 167.27-18.16 168.27-16.72L168.27-16.72 168.27-4.71Q167.44-3.59 165.84-2.73 164.24-1.88 162.75-1.88L162.75-1.88Q159.92-1.88 158.36-4.3 156.79-6.71 156.79-11.04L156.79-11.04Q156.79-13.72 157.51-15.69 158.23-17.65 159.55-18.71 160.87-19.78 162.63-19.78L162.63-19.78ZM196.29 0Q202.27 0 206.37-2.19 210.48-4.37 212.49-8 214.5-11.62 214.5-15.97L214.5-15.97Q214.5-20.04 212.89-23.35 211.28-26.66 207.48-28.7 203.69-30.74 197.49-30.74L197.49-30.74Q194.95-30.74 192.14-30.44 189.33-30.15 185.45-29.54L185.45-29.54 185.21-28.17 189.43-27.54 189.43-2.47 185.26-1.42 184.99 0 196.29 0ZM193-28.71Q194-28.83 196.61-28.83L196.61-28.83Q201.1-28.83 204.24-27.01 207.37-25.2 208.95-21.98 210.52-18.77 210.52-14.62L210.52-14.62Q210.52-10.94 208.93-8.06 207.33-5.18 204.25-3.55 201.17-1.93 196.95-1.93L196.95-1.93 193-1.93 193-28.71ZM225.71 0.73Q228.05 0.73 230-0.15 231.96-1.03 233.25-2.54L233.25-2.54 232.79-3.61Q231.42-2.69 230.18-2.29 228.93-1.9 227.39-1.9L227.39-1.9Q225.1-1.9 223.53-3.15 221.97-4.39 221.2-6.42 220.43-8.45 220.39-10.86L220.39-10.86 232.2-11.01Q232.37-11.65 232.49-12.63 232.62-13.62 232.62-14.21L232.62-14.21Q232.62-17.92 230.97-19.78 229.32-21.63 226.51-21.63L226.51-21.63Q224.1-21.63 221.89-20.28 219.68-18.92 218.31-16.33 216.94-13.75 216.94-10.25L216.94-10.25Q216.94-6.69 218.14-4.21 219.34-1.73 221.33-0.5 223.31 0.73 225.71 0.73L225.71 0.73ZM225.32-19.75Q227.1-19.75 228.14-18.43 229.17-17.11 229.17-14.89L229.17-14.89Q229.17-13.43 229-12.94L229-12.94 220.43-12.38Q220.48-14.77 221.15-16.43 221.83-18.09 222.91-18.92 224-19.75 225.32-19.75L225.32-19.75ZM235.37-19.68L238.35-18.77 245.24 0.63 247.43 0.27 254.29-18.82 256.95-19.73 257.17-21.02 248.41-21.02 248.14-19.68 252.05-18.77 246.87-3.93 241.77-18.82 245.33-19.73 245.46-21.02 235.54-21.02 235.37-19.68Z" opacity="1" transform="matrix(1,0,0,1,0,0)" fill="#ffffff" class="undefined-text-1" data-fill-palette-color="quaternary" id="text-1"></path></svg></g></svg></g></svg></g></svg></g><g></g></svg></g></svg></g></svg></g></svg></g><defs></defs></svg><rect width="320" height="360" fill="none" stroke="none" visibility="hidden"></rect></g></svg></g></svg>